<svg width="210" height="175" viewBox="0 0 210 175" fill="none" xmlns="http://www.w3.org/2000/svg">
<g clip-path="url(#clip0)">
<g clip-path="url(#clip1)">
<path d="M55 108.222C84.2711 108.222 108 84.4926 108 55.2216C108 25.9505 84.2711 2.22156 55 2.22156C25.7289 2.22156 2 25.9505 2 55.2216C2 84.4926 25.7289 108.222 55 108.222Z" fill="#F2F2F2"/>
<path d="M55 16.2216C56.6569 16.2216 58 14.8784 58 13.2216C58 11.5647 56.6569 10.2216 55 10.2216C53.3431 10.2216 52 11.5647 52 13.2216C52 14.8784 53.3431 16.2216 55 16.2216Z" fill="black" fill-opacity="0.1"/>
<path d="M13 58.2216C14.6569 58.2216 16 56.8784 16 55.2216C16 53.5647 14.6569 52.2216 13 52.2216C11.3431 52.2216 10 53.5647 10 55.2216C10 56.8784 11.3431 58.2216 13 58.2216Z" fill="black" fill-opacity="0.1"/>
<path d="M97 58.2216C98.6569 58.2216 100 56.8784 100 55.2216C100 53.5647 98.6569 52.2216 97 52.2216C95.3431 52.2216 94 53.5647 94 55.2216C94 56.8784 95.3431 58.2216 97 58.2216Z" fill="black" fill-opacity="0.1"/>
<path d="M55 100.222C56.6569 100.222 58 98.8784 58 97.2216C58 95.5647 56.6569 94.2216 55 94.2216C53.3431 94.2216 52 95.5647 52 97.2216C52 98.8784 53.3431 100.222 55 100.222Z" fill="black" fill-opacity="0.1"/>
<path fill-rule="evenodd" clip-rule="evenodd" d="M55 19.2216L57 54.2216H53L55 19.2216Z" fill="#AFB9C5"/>
<path fill-rule="evenodd" clip-rule="evenodd" d="M72.6985 72.9201L54.3137 57.3637L57.1421 54.5353L72.6985 72.9201Z" fill="#AFB9C5"/>
<path d="M55 59.2216C57.2091 59.2216 59 57.4307 59 55.2216C59 53.0124 57.2091 51.2216 55 51.2216C52.7909 51.2216 51 53.0124 51 55.2216C51 57.4307 52.7909 59.2216 55 59.2216Z" fill="#C5CFD6"/>
</g>
<path fill-rule="evenodd" clip-rule="evenodd" d="M186.704 150.073C184.666 141.23 179 134.044 173.065 127.411C161.511 114.499 155.36 106.58 152.112 88.5786C150.201 77.9913 148.285 66.779 140.572 58.6873C134.956 52.7949 124.976 47.5028 116.732 50.9266C103.967 57.4643 99.6904 72.3029 100.055 85.862C100.507 102.668 107.643 113.475 122.235 120.6C130.457 124.614 135.776 129.551 139.844 137.816C143.099 144.426 144.72 152.543 148.954 158.617C155.285 167.698 163.659 172.096 174.381 171.351C165.614 152.389 155.182 133.145 142.152 116.813C140.94 115.177 133.579 108.74 135.312 106.199C137.222 103.401 144.465 114.846 144.413 114.776C148.187 119.721 151.637 124.939 155.016 130.2C155.006 130.205 154.995 130.207 154.984 130.211C158.464 135.611 161.909 141.085 165.278 146.619C166.634 148.956 167.948 151.318 169.196 153.734C171.027 157.278 173.656 167.171 176.879 169.486C177.569 169.982 178.217 170.275 178.831 170.419C180.88 174.32 182.864 178.247 184.737 182.212C189.626 192.567 193.696 203.429 195.145 214.856C195.568 218.191 194.318 230.483 196.412 233.006C200.241 237.622 199.58 229.169 199.498 226.625C198.815 205.558 192.456 187.236 182.686 168.929C186.322 164.768 187.529 153.657 186.704 150.073Z" fill="#F2F2F2"/>
<path fill-rule="evenodd" clip-rule="evenodd" d="M45.2558 151.054C49.9207 146.229 60.3946 146.039 66.7439 146.794C74.6005 147.728 82.5739 150.173 89.9241 152.98C102.032 157.604 113.586 165.359 124.03 172.816C125.289 173.715 140.815 184.479 139.274 186.091C137.748 187.689 122.636 175.119 119.23 172.9C111.963 168.165 105.371 162.695 97.238 159.351C88.8172 155.889 79.787 154.149 70.7289 153.641C69.5664 153.576 65.829 152.52 65.6357 154.233C65.4466 155.909 71.7744 155.439 72.8797 155.521C77.4441 155.859 82.0116 156.587 86.4627 157.67C94.8022 159.7 102.539 163.202 109.467 168.253C107.147 172.809 102.174 174.657 97.1803 173.155C92.8646 171.856 88.7555 169.079 84.5121 168.077C81.5895 167.388 78.6116 167.492 75.6923 168.139C67.9917 169.845 63.3407 174.062 55.2338 170.393C48.8785 167.516 38.5555 157.994 45.2558 151.054Z" fill="#F2F2F2"/>
<path fill-rule="evenodd" clip-rule="evenodd" d="M103.124 157.543L105.174 157.676C105.199 155.065 105.18 152.455 104.908 149.854C103.885 140.103 99.6509 125.605 88.4504 123.307C88.0373 123.221 86.5042 123.112 84.6393 123.099C83.7903 122.555 82.8231 122.197 81.7883 122.062C72.2112 120.736 60.9669 127.719 55.8069 135.409C51.6471 141.61 51.7285 150.112 53.5956 157.108C54.8459 161.792 57.7997 168.545 63.4284 168.974C70.4706 169.511 71.3694 160.916 71.8325 155.888C72.4481 149.203 73.682 143.424 79.3124 139.205C80.6246 138.223 82.0442 137.375 83.368 136.408C85.4409 134.894 87.723 133.355 88.1524 130.656C88.7452 126.932 86.6513 126.119 83.3422 126.603C82.7782 126.686 77.0122 128.81 77.9696 126.897C78.2619 126.313 79.2181 125.897 80.4092 125.616C83.4525 125.487 87.0811 125.344 88.103 125.636C99.1279 128.789 102.488 144.395 103.012 154.205C103.072 155.316 103.104 156.429 103.124 157.543L103.124 157.543Z" fill="#F2F2F2"/>
<path d="M158.195 93.0757C155.629 92.9639 150.756 94.5596 146.717 96.0839C142.062 97.8404 137.544 99.9004 137.876 99.3499C138.284 98.6712 145.115 95.0104 150.594 92.2013C153.43 90.7474 155.658 88.7353 156.513 88.0309C159.425 85.6362 159.112 78.3084 156.58 76.1249C154.048 73.9415 151.642 75.6541 147.493 77.7271C145.224 78.8606 142.833 80.1619 140.715 81.3545C143.653 79.5667 147.118 77.358 150.048 75.2102C152.354 73.5193 154.849 72.0572 155.975 70.6767C160.306 65.3637 155.841 59.4342 153.957 58.1651C152.073 56.8964 148.547 59.1364 143.796 62.4959C138.03 66.5724 131.783 71.2946 131.58 70.8028C131.209 69.9033 142.579 61.072 147.096 57.156C149.745 54.8586 153.352 47.2683 153.755 43.03C154.09 39.5131 155.022 35.261 148.836 34.4684C142.65 33.6771 141.056 43.4831 136.013 47.2313C130.971 50.9795 95.1482 73.2532 95.1482 73.2532C95.1482 73.2532 81.1775 103.506 80.7875 114.285C80.3993 125.064 81.1275 131.721 81.1275 131.721L68.0837 180.185H113.891L116.102 151.188C118.047 150.179 122.654 145.731 126.923 142.24C131.191 138.749 141.699 120.643 142.473 118.882C142.779 118.185 145.195 116.422 147.499 114.063C151.017 110.459 156.967 107.506 159.203 105.991C163.375 103.166 161.289 93.2104 158.195 93.0757Z" fill="#FAC4A8"/>
<path d="M81.5245 126.904C73.7176 113.129 126.75 107.72 141.868 120.048C140.573 122.415 137.518 127.634 134.363 132.486C128.109 134.613 120.21 137.823 113.188 142.262C98.7939 151.361 90.8348 143.332 81.5245 126.904Z" fill="#E5A98E"/>
<path d="M140.975 17.7546L85.7964 29.5546L110.116 143.277L165.295 131.477L140.975 17.7546Z" fill="white"/>
<path d="M143.373 16.2257L139.679 17.0244L162.976 125.487L166.67 124.688L143.373 16.2257Z" fill="#264654"/>
<path d="M87.2098 28.3772L83.5156 29.1759L106.812 137.638L110.506 136.84L87.2098 28.3772Z" fill="#264654"/>
<path d="M143.293 17.2465L142.734 14.6608C142.734 14.6608 140.756 5.49281 129.315 7.94978L92.3416 15.9224C92.3416 15.9224 80.7208 17.5302 82.8801 27.5611L83.44 30.1468L143.293 17.2465ZM106.47 137.399L108.144 145.201C108.144 145.201 109.628 152.098 121.07 149.641L158.043 141.668C158.043 141.668 169.594 139.732 167.438 129.715L166.312 124.516L106.47 137.399Z" fill="#264654"/>
<path d="M107.541 18.7331L107.907 20.4012L121.249 17.5288L120.897 15.8578L107.541 18.7331Z" fill="#EEEDED"/>
<path d="M103.859 19.524L104.226 21.1921L106.444 20.7239L106.089 19.0393L103.859 19.524Z" fill="#EEEDED"/>
<path d="M161.574 120.879C162.126 123.49 160.445 126.089 157.836 126.654L115.213 135.885C112.604 136.45 110.018 134.776 109.465 132.165L88.7344 34.2296C88.1818 31.6187 89.8635 29.0202 92.472 28.4551L135.094 19.2221C137.703 18.6569 140.289 20.3311 140.842 22.942L161.574 120.879Z" fill="#E6E6E6"/>
<path d="M161.574 120.879C162.126 123.49 160.445 126.089 157.836 126.654L115.213 135.885C112.604 136.45 110.018 134.776 109.465 132.165L88.7344 34.2296C88.1818 31.6187 89.8635 29.0202 92.472 28.4551L135.094 19.2221C137.703 18.6569 140.289 20.3311 140.842 22.942L161.574 120.879Z" fill="#DDF5FF"/>
<path d="M99.9779 87.9394L152.46 76.6661L139.962 18.0349L87.4791 29.3069L99.9779 87.9394Z" fill="#E9F6FF"/>
<path d="M108.683 117.682C109.08 119.553 110.935 120.756 112.805 120.354L152.887 111.744C154.758 111.342 155.963 109.482 155.566 107.611L150.338 82.9702C149.941 81.099 148.086 79.8966 146.216 80.298L106.132 88.9071C104.262 89.3089 103.056 91.1687 103.454 93.04L108.683 117.682Z" fill="#C7E1E8"/>
<path d="M111.429 131.343C111.822 133.216 113.675 134.424 115.548 134.028L134.882 129.944C136.754 129.548 137.964 127.693 137.57 125.821L136.557 121C136.164 119.128 134.311 117.919 132.439 118.315L113.103 122.398C111.232 122.793 110.022 124.649 110.416 126.521L111.429 131.343Z" fill="#C7E1E8"/>
<path d="M139.285 125.582C139.678 127.454 141.532 128.665 143.404 128.273L155.774 125.684C157.647 125.292 158.857 123.439 158.464 121.567L157.451 116.746C157.058 114.874 155.204 113.663 153.331 114.055L140.96 116.644C139.088 117.036 137.878 118.888 138.271 120.76L139.285 125.582Z" fill="#C7E1E8"/>
<path d="M133.766 62.0615L126.246 63.6698L124.378 54.8775L131.897 53.2692L133.766 62.0615Z" fill="#FFC909"/>
<path d="M107.935 89.6467L97.6069 41.0527L97.3858 41.0997L107.714 89.6937L107.935 89.6467Z" fill="white"/>
<path d="M115.52 88.024L105.191 39.4293L104.97 39.4764L115.298 88.0711L115.52 88.024Z" fill="white"/>
<path d="M123.106 86.4016L112.777 37.8068L112.556 37.8537L122.885 86.4485L123.106 86.4016Z" fill="white"/>
<path d="M130.689 84.7766L120.36 36.1827L120.138 36.2299L130.467 84.8238L130.689 84.7766Z" fill="white"/>
<path d="M138.276 83.1552L127.948 34.5604L127.726 34.6074L138.055 83.2022L138.276 83.1552Z" fill="white"/>
<path d="M145.863 81.5326L135.534 32.9378L135.311 32.9851L145.64 81.5798L145.863 81.5326Z" fill="white"/>
<path d="M147.693 40.5489L147.639 40.2972L91.3331 52.3423L91.387 52.594L147.693 40.5489Z" fill="white"/>
<path d="M149.591 49.4811L149.537 49.2299L93.2437 61.3381L93.2977 61.5894L149.591 49.4811Z" fill="white"/>
<path d="M151.519 58.4941L151.466 58.2424L95.1534 70.2357L95.207 70.4874L151.519 58.4941Z" fill="white"/>
<path d="M153.428 67.5141L153.374 67.2614L97.036 79.1345L97.0892 79.3872L153.428 67.5141Z" fill="white"/>
<path d="M100.095 44.2143L99.8684 44.2628L99.5493 42.7611L99.1306 43.0251L99.0871 42.8205L99.6809 42.4401L99.7162 42.4325L100.095 44.2143Z" fill="#0696D6"/>
<path d="M108.003 42.5224L106.841 42.771L106.807 42.609L107.275 41.7957C107.344 41.6731 107.389 41.5761 107.409 41.5047C107.431 41.4322 107.434 41.3615 107.419 41.2925C107.399 41.1999 107.355 41.13 107.287 41.0827C107.218 41.0354 107.137 41.0218 107.044 41.0417C106.932 41.0657 106.851 41.1165 106.802 41.194C106.754 41.2705 106.742 41.3656 106.766 41.4793L106.541 41.5275C106.506 41.3643 106.531 41.2211 106.614 41.098C106.698 40.9748 106.828 40.8943 107.004 40.8566C107.169 40.8214 107.309 40.8369 107.423 40.9033C107.537 40.9689 107.609 41.0735 107.64 41.2172C107.677 41.3918 107.61 41.6235 107.439 41.9122L107.073 42.529L107.963 42.3385L108.003 42.5224Z" fill="#0696D6"/>
<path d="M114.468 40.0976L114.637 40.0614C114.743 40.037 114.821 39.9911 114.87 39.9237C114.92 39.8563 114.934 39.7763 114.915 39.6837C114.871 39.4758 114.745 39.3941 114.538 39.4383C114.441 39.4592 114.369 39.5039 114.322 39.5724C114.276 39.6399 114.263 39.7196 114.282 39.8113L114.057 39.8595C114.027 39.7191 114.054 39.5916 114.136 39.4772C114.22 39.3617 114.34 39.2871 114.499 39.2532C114.666 39.2174 114.806 39.2336 114.92 39.3018C115.034 39.37 115.108 39.4829 115.141 39.6404C115.157 39.7175 115.148 39.7976 115.113 39.8806C115.079 39.9635 115.023 40.032 114.944 40.0861C115.048 40.0961 115.134 40.1312 115.202 40.1914C115.271 40.2514 115.316 40.3329 115.338 40.436C115.372 40.5952 115.347 40.7325 115.263 40.8481C115.179 40.9637 115.054 41.0393 114.887 41.075C114.721 41.1106 114.576 41.0945 114.452 41.0268C114.329 40.9589 114.251 40.851 114.22 40.7033L114.447 40.6548C114.466 40.7482 114.513 40.8164 114.585 40.8594C114.658 40.9024 114.746 40.9129 114.848 40.891C114.957 40.8678 115.034 40.8216 115.08 40.7524C115.125 40.6832 115.137 40.5955 115.114 40.4891C115.092 40.386 115.044 40.3136 114.968 40.2719C114.893 40.2303 114.796 40.2214 114.676 40.2453L114.507 40.2815L114.468 40.0976Z" fill="#0696D6"/>
<path d="M122.697 38.7558L122.943 38.7031L122.982 38.8871L122.736 38.9397L122.824 39.3513L122.597 39.3998L122.51 38.9881L121.702 39.1608L121.674 39.0281L122.207 37.6294L122.447 37.578L122.697 38.7558ZM121.919 38.9222L122.471 38.8042L122.286 37.9346L122.269 37.9891L121.919 38.9222Z" fill="#0696D6"/>
<path d="M129.278 37.0408L129.18 36.1374L130.088 35.943L130.132 36.1513L129.415 36.3047L129.464 36.7997C129.54 36.73 129.634 36.6833 129.744 36.6597C129.905 36.6251 130.045 36.6513 130.163 36.7381C130.28 36.8242 130.359 36.9581 130.397 37.14C130.436 37.3227 130.417 37.4774 130.341 37.6041C130.265 37.7299 130.138 37.8117 129.961 37.8496C129.805 37.8831 129.667 37.867 129.55 37.8013C129.432 37.7356 129.351 37.6275 129.304 37.477L129.517 37.4314C129.553 37.53 129.605 37.599 129.674 37.6384C129.744 37.6771 129.826 37.6861 129.922 37.6656C130.027 37.6432 130.101 37.59 130.145 37.5058C130.19 37.4215 130.199 37.3165 130.172 37.1906C130.147 37.0721 130.095 36.984 130.014 36.9265C129.935 36.8679 129.842 36.8501 129.735 36.873C129.636 36.8941 129.564 36.9321 129.517 36.9871L129.468 37.0486L129.278 37.0408Z" fill="#0696D6"/>
<path d="M137.509 34.354L137.55 34.5452L137.509 34.5541C137.334 34.5949 137.205 34.6767 137.123 34.7996C137.04 34.9225 137.01 35.0771 137.033 35.2632C137.104 35.1361 137.22 35.0552 137.381 35.0207C137.535 34.9877 137.67 35.0157 137.785 35.1049C137.901 35.1939 137.977 35.3245 138.013 35.4966C138.052 35.6793 138.033 35.8361 137.957 35.9671C137.881 36.0979 137.759 36.1812 137.592 36.217C137.423 36.2533 137.271 36.2178 137.138 36.1104C137.005 36.0023 136.916 35.8455 136.873 35.6401L136.854 35.5536C136.785 35.2272 136.801 34.9631 136.903 34.7613C137.006 34.5584 137.195 34.4256 137.469 34.3626L137.509 34.354ZM137.383 35.2163C137.306 35.2328 137.24 35.2711 137.185 35.3313C137.13 35.3915 137.097 35.4592 137.087 35.5344L137.105 35.6172C137.136 35.7633 137.193 35.874 137.278 35.9493C137.363 36.0245 137.454 36.0516 137.553 36.0306C137.654 36.0089 137.726 35.9546 137.767 35.8675C137.81 35.7803 137.818 35.6762 137.793 35.5553C137.767 35.4335 137.716 35.3416 137.641 35.2795C137.567 35.2165 137.481 35.1954 137.383 35.2163Z" fill="#0696D6"/>
<path d="M94.8712 52.8736L94.487 54.6773L94.2508 54.7279L94.645 52.9831L93.6855 53.1884L93.6462 53.0033L94.8443 52.747L94.8712 52.8736Z" fill="#0696D6"/>
<path d="M102.034 51.6924C102.053 51.7809 102.046 51.8647 102.014 51.9438C101.982 52.0227 101.931 52.0901 101.86 52.1461C101.961 52.1661 102.046 52.2085 102.116 52.2734C102.187 52.3381 102.232 52.4187 102.253 52.5154C102.285 52.6688 102.259 52.8021 102.175 52.9153C102.091 53.0283 101.965 53.1028 101.796 53.139C101.625 53.1754 101.479 53.1592 101.356 53.0904C101.235 53.0205 101.158 52.9092 101.125 52.7566C101.105 52.6608 101.112 52.5688 101.148 52.4805C101.184 52.3921 101.245 52.3181 101.329 52.2585C101.242 52.2364 101.168 52.1957 101.108 52.1364C101.048 52.0771 101.008 52.0036 100.99 51.9159C100.958 51.7665 100.981 51.6377 101.058 51.5295C101.135 51.4213 101.252 51.3505 101.409 51.317C101.564 51.2836 101.7 51.3006 101.814 51.3678C101.929 51.4348 102.003 51.543 102.034 51.6924ZM102.026 52.5587C102.005 52.4596 101.956 52.3856 101.88 52.3366C101.804 52.2875 101.715 52.2738 101.614 52.2955C101.513 52.3172 101.437 52.3655 101.389 52.4404C101.341 52.5151 101.328 52.6028 101.349 52.7035C101.371 52.8042 101.417 52.877 101.489 52.922C101.561 52.9668 101.65 52.9778 101.757 52.9551C101.862 52.9325 101.939 52.886 101.987 52.8155C102.034 52.7441 102.048 52.6586 102.026 52.5587ZM101.448 51.5021C101.359 51.521 101.293 51.564 101.25 51.631C101.207 51.6971 101.196 51.7772 101.216 51.8714C101.235 51.9615 101.277 52.0288 101.343 52.0734C101.409 52.117 101.487 52.1291 101.577 52.1098C101.667 52.0906 101.733 52.0476 101.775 51.9809C101.817 51.9132 101.829 51.8344 101.81 51.7442C101.791 51.6541 101.747 51.5866 101.679 51.5418C101.611 51.4969 101.534 51.4837 101.448 51.5021Z" fill="#0696D6"/>
<path d="M109.422 50.667C109.386 50.7331 109.34 50.7902 109.281 50.8384C109.223 50.8864 109.156 50.9187 109.078 50.9354C108.975 50.9573 108.881 50.9512 108.794 50.9172C108.708 50.883 108.634 50.8249 108.573 50.7428C108.512 50.6599 108.47 50.5632 108.447 50.4528C108.422 50.3343 108.421 50.2227 108.446 50.1182C108.471 50.0134 108.52 49.927 108.592 49.859C108.664 49.7909 108.755 49.7451 108.865 49.7215C109.041 49.684 109.193 49.7202 109.321 49.8302C109.451 49.9392 109.539 50.107 109.587 50.3335L109.601 50.3993C109.675 50.7444 109.66 51.0111 109.558 51.1994C109.455 51.3869 109.266 51.5121 108.992 51.575L108.948 51.5844L108.908 51.3944L108.955 51.3843C109.141 51.3412 109.273 51.2624 109.353 51.1476C109.433 51.0321 109.456 50.8719 109.422 50.667ZM109.075 50.7412C109.15 50.7251 109.215 50.6871 109.268 50.6273C109.322 50.5673 109.357 50.5 109.372 50.4256L109.352 50.3354C109.321 50.1877 109.263 50.0744 109.18 49.9955C109.096 49.9167 109.005 49.8878 108.907 49.9088C108.808 49.93 108.736 49.9852 108.692 50.0743C108.648 50.1627 108.639 50.269 108.666 50.3932C108.692 50.5142 108.742 50.6079 108.816 50.6743C108.891 50.7398 108.977 50.7621 109.075 50.7412Z" fill="#0696D6"/>
<path d="M116.976 49.8657L116.749 49.9141L116.43 48.4125L116.011 48.6765L115.968 48.4719L116.562 48.0914L116.597 48.0839L116.976 49.8657ZM118.587 48.7303C118.643 48.9942 118.639 49.1999 118.576 49.3475C118.514 49.4951 118.386 49.5893 118.195 49.6303C118.006 49.6708 117.852 49.6382 117.735 49.5326C117.617 49.4262 117.53 49.2488 117.474 49.0002L117.41 48.6994C117.355 48.4387 117.359 48.2354 117.422 48.0895C117.485 47.9436 117.613 47.85 117.805 47.8089C117.996 47.768 118.149 47.7993 118.266 47.9026C118.382 48.0051 118.468 48.1836 118.524 48.438L118.587 48.7303ZM118.296 48.4704C118.255 48.2796 118.199 48.1465 118.127 48.0711C118.055 47.9948 117.961 47.9691 117.845 47.994C117.729 48.0186 117.654 48.0801 117.62 48.1782C117.586 48.2764 117.587 48.4158 117.624 48.5964L117.7 48.9569C117.741 49.1485 117.799 49.2843 117.874 49.3642C117.949 49.4432 118.043 49.4706 118.156 49.4464C118.267 49.4226 118.34 49.362 118.376 49.2644C118.412 49.1667 118.411 49.0251 118.374 48.8394L118.296 48.4704Z" fill="#0696D6"/>
<path d="M124.496 48.2566L124.27 48.3051L123.951 46.8034L123.532 47.0674L123.488 46.8628L124.082 46.4824L124.117 46.4748L124.496 48.2566ZM125.896 47.957L125.67 48.0055L125.351 46.5038L124.932 46.7678L124.889 46.5632L125.482 46.1828L125.518 46.1752L125.896 47.957Z" fill="#0696D6"/>
<path d="M131.987 46.6539L131.76 46.7024L131.441 45.2007L131.022 45.4647L130.979 45.2601L131.573 44.8797L131.608 44.8721L131.987 46.6539ZM133.808 46.2642L132.646 46.5127L132.612 46.3507L133.081 45.5374C133.15 45.4148 133.194 45.3178 133.215 45.2464C133.236 45.174 133.239 45.1033 133.225 45.0342C133.205 44.9417 133.161 44.8717 133.092 44.8245C133.024 44.7772 132.943 44.7635 132.849 44.7835C132.737 44.8075 132.657 44.8582 132.608 44.9357C132.56 45.0122 132.548 45.1073 132.572 45.221L132.347 45.2692C132.312 45.106 132.336 44.9629 132.419 44.8398C132.504 44.7165 132.634 44.6361 132.81 44.5984C132.975 44.5631 133.114 44.5787 133.228 44.6451C133.342 44.7106 133.415 44.8153 133.445 44.959C133.482 45.1336 133.415 45.3652 133.244 45.6539L132.879 46.2707L133.769 46.0803L133.808 46.2642Z" fill="#0696D6"/>
<path d="M139.626 45.0194L139.4 45.0678L139.08 43.5662L138.662 43.8302L138.618 43.6256L139.212 43.2451L139.247 43.2376L139.626 45.0194ZM140.402 43.8119L140.571 43.7756C140.677 43.7513 140.755 43.7054 140.804 43.6379C140.853 43.5705 140.868 43.4905 140.848 43.398C140.804 43.1901 140.679 43.1083 140.472 43.1526C140.374 43.1735 140.302 43.2181 140.256 43.2867C140.21 43.3542 140.197 43.4339 140.216 43.5256L139.991 43.5738C139.961 43.4333 139.987 43.3059 140.07 43.1914C140.153 43.076 140.274 43.0014 140.432 42.9675C140.6 42.9317 140.74 42.9479 140.854 43.0161C140.968 43.0843 141.041 43.1971 141.075 43.3546C141.091 43.4318 141.082 43.5119 141.047 43.5949C141.013 43.6778 140.956 43.7462 140.878 43.8004C140.982 43.8104 141.068 43.8455 141.136 43.9056C141.205 43.9656 141.25 44.0472 141.272 44.1503C141.306 44.3094 141.281 44.4468 141.197 44.5624C141.112 44.678 140.987 44.7536 140.821 44.7892C140.654 44.8248 140.509 44.8088 140.385 44.741C140.262 44.6731 140.185 44.5653 140.154 44.4175L140.38 44.3691C140.4 44.4625 140.446 44.5306 140.519 44.5736C140.592 44.6166 140.679 44.6272 140.782 44.6053C140.891 44.582 140.968 44.5358 141.013 44.4667C141.059 44.3975 141.07 44.3097 141.048 44.2034C141.026 44.1002 140.977 44.0279 140.902 43.9862C140.827 43.9445 140.73 43.9356 140.61 43.9596L140.441 43.9958L140.402 43.8119Z" fill="#0696D6"/>
<path d="M96.6997 63.4642L96.4732 63.5127L96.1541 62.011L95.7354 62.275L95.6919 62.0704L96.2857 61.69L96.321 61.6824L96.6997 63.4642ZM98.1839 62.524L98.4299 62.4714L98.469 62.6553L98.223 62.7079L98.3105 63.1196L98.0841 63.168L97.9966 62.7564L97.1893 62.9291L97.1611 62.7963L97.6938 61.3976L97.9336 61.3463L98.1839 62.524ZM97.4059 62.6905L97.9575 62.5725L97.7726 61.7029L97.7562 61.7573L97.4059 62.6905Z" fill="#0696D6"/>
<path d="M103.861 61.932L103.634 61.9804L103.315 60.4787L102.897 60.7428L102.853 60.5382L103.447 60.1577L103.482 60.1502L103.861 61.932ZM104.435 60.8796L104.337 59.9761L105.246 59.7817L105.29 59.99L104.573 60.1434L104.622 60.6384C104.698 60.5687 104.791 60.522 104.902 60.4984C105.063 60.4638 105.203 60.49 105.321 60.5768C105.438 60.6629 105.516 60.7968 105.555 60.9787C105.594 61.1614 105.575 61.3161 105.498 61.4429C105.422 61.5686 105.296 61.6504 105.119 61.6883C104.962 61.7218 104.825 61.7057 104.708 61.64C104.59 61.5743 104.508 61.4662 104.462 61.3157L104.675 61.2701C104.71 61.3687 104.763 61.4377 104.832 61.4771C104.901 61.5158 104.984 61.5249 105.08 61.5044C105.185 61.482 105.259 61.4287 105.303 61.3446C105.348 61.2603 105.357 61.1552 105.33 61.0293C105.305 60.9108 105.252 60.8227 105.172 60.7652C105.093 60.7066 104.999 60.6888 104.892 60.7118C104.794 60.7328 104.721 60.7708 104.675 60.8258L104.625 60.8873L104.435 60.8796Z" fill="#0696D6"/>
<path d="M111.347 60.3302L111.121 60.3787L110.801 58.877L110.383 59.141L110.339 58.9364L110.933 58.556L110.968 58.5484L111.347 60.3302ZM112.514 58.2254L112.554 58.4166L112.513 58.4255C112.338 58.4662 112.21 58.5481 112.127 58.671C112.045 58.7939 112.015 58.9484 112.037 59.1346C112.108 59.0074 112.224 58.9266 112.386 58.892C112.54 58.859 112.674 58.8871 112.789 58.9763C112.905 59.0653 112.981 59.1959 113.018 59.368C113.056 59.5507 113.038 59.7075 112.961 59.8385C112.885 59.9693 112.764 60.0526 112.597 60.0884C112.427 60.1247 112.276 60.0891 112.142 59.9818C112.009 59.8737 111.921 59.7169 111.877 59.5114L111.859 59.425C111.789 59.0986 111.806 58.8345 111.908 58.6326C112.011 58.4298 112.199 58.2969 112.474 58.234L112.514 58.2254ZM112.388 59.0877C112.311 59.1042 112.244 59.1425 112.189 59.2027C112.134 59.2629 112.102 59.3305 112.091 59.4058L112.109 59.4886C112.14 59.6347 112.198 59.7454 112.283 59.8207C112.367 59.8959 112.459 59.923 112.557 59.902C112.658 59.8803 112.73 59.8259 112.772 59.7389C112.814 59.6517 112.823 59.5476 112.797 59.4266C112.771 59.3048 112.721 59.2129 112.646 59.1509C112.571 59.0879 112.485 59.0668 112.388 59.0877Z" fill="#0696D6"/>
<path d="M118.859 58.7232L118.632 58.7716L118.313 57.2699L117.894 57.534L117.851 57.3294L118.445 56.9489L118.48 56.9414L118.859 58.7232ZM120.313 56.6905L119.929 58.4942L119.693 58.5447L120.087 56.8L119.127 57.0053L119.088 56.8202L120.286 56.5638L120.313 56.6905Z" fill="#0696D6"/>
<path d="M126.379 57.114L126.152 57.1625L125.833 55.6608L125.415 55.9248L125.371 55.7202L125.965 55.3398L126 55.3322L126.379 57.114ZM127.835 55.4324C127.854 55.5209 127.847 55.6046 127.815 55.6837C127.783 55.7627 127.732 55.8301 127.661 55.8861C127.762 55.9061 127.847 55.9485 127.917 56.0134C127.987 56.0781 128.033 56.1587 128.054 56.2553C128.086 56.4088 128.06 56.5421 127.976 56.6553C127.892 56.7683 127.766 56.8428 127.597 56.8789C127.426 56.9154 127.28 56.8992 127.157 56.8303C127.036 56.7605 126.959 56.6492 126.926 56.4966C126.906 56.4007 126.913 56.3087 126.949 56.2205C126.985 56.132 127.046 56.058 127.13 55.9985C127.043 55.9763 126.969 55.9356 126.909 55.8763C126.849 55.817 126.809 55.7436 126.791 55.6559C126.759 55.5065 126.782 55.3777 126.859 55.2695C126.936 55.1613 127.053 55.0905 127.21 55.0569C127.365 55.0236 127.501 55.0405 127.615 55.1077C127.73 55.1747 127.804 55.283 127.835 55.4324ZM127.827 56.2987C127.806 56.1996 127.757 56.1256 127.681 56.0766C127.605 56.0275 127.516 56.0137 127.415 56.0354C127.313 56.0572 127.238 56.1055 127.19 56.1804C127.142 56.2551 127.129 56.3428 127.15 56.4435C127.172 56.5442 127.218 56.617 127.29 56.662C127.362 56.7068 127.451 56.7178 127.558 56.695C127.663 56.6725 127.74 56.6259 127.788 56.5554C127.835 56.4841 127.849 56.3985 127.827 56.2987ZM127.249 55.2421C127.16 55.261 127.094 55.304 127.051 55.371C127.008 55.437 126.997 55.5171 127.017 55.6113C127.036 55.7015 127.078 55.7688 127.144 55.8134C127.21 55.8569 127.288 55.8691 127.378 55.8498C127.468 55.8305 127.534 55.7876 127.576 55.7209C127.618 55.6532 127.63 55.5743 127.611 55.4842C127.592 55.3941 127.548 55.3266 127.48 55.2817C127.412 55.2369 127.335 55.2237 127.249 55.2421Z" fill="#1B2746"/>
<path d="M133.869 55.5114L133.643 55.5598L133.324 54.0582L132.905 54.3222L132.861 54.1176L133.455 53.7371L133.491 53.7296L133.869 55.5114ZM135.227 54.406C135.192 54.4721 135.145 54.5293 135.086 54.5774C135.029 54.6254 134.961 54.6578 134.883 54.6744C134.781 54.6963 134.686 54.6902 134.599 54.6562C134.513 54.622 134.439 54.5639 134.379 54.4818C134.318 54.3989 134.276 54.3023 134.252 54.1919C134.227 54.0733 134.226 53.9618 134.251 53.8572C134.276 53.7525 134.325 53.6661 134.397 53.598C134.469 53.53 134.56 53.4842 134.671 53.4605C134.846 53.423 134.998 53.4593 135.127 53.5693C135.256 53.6783 135.345 53.8461 135.393 54.0726L135.407 54.1384C135.48 54.4834 135.465 54.7501 135.363 54.9384C135.26 55.1259 135.072 55.2512 134.797 55.3141L134.754 55.3235L134.713 55.1335L134.761 55.1233C134.946 55.0803 135.078 55.0014 135.158 54.8867C135.238 54.7711 135.261 54.6109 135.227 54.406ZM134.88 54.4803C134.955 54.4641 135.02 54.4261 135.073 54.3663C135.128 54.3063 135.162 54.2391 135.177 54.1646L135.158 54.0745C135.126 53.9267 135.069 53.8134 134.985 53.7346C134.901 53.6557 134.81 53.6268 134.712 53.6478C134.613 53.669 134.541 53.7242 134.497 53.8134C134.453 53.9017 134.445 54.008 134.471 54.1323C134.497 54.2532 134.547 54.3469 134.621 54.4134C134.696 54.4788 134.782 54.5011 134.88 54.4803Z" fill="#0696D6"/>
<path d="M141.93 53.7868L140.769 54.0353L140.734 53.8733L141.203 53.06C141.272 52.9374 141.317 52.8404 141.337 52.769C141.358 52.6966 141.361 52.6259 141.347 52.5568C141.327 52.4643 141.283 52.3944 141.214 52.3471C141.146 52.2998 141.065 52.2861 140.971 52.3061C140.859 52.3301 140.779 52.3808 140.73 52.4583C140.682 52.5348 140.67 52.6299 140.694 52.7436L140.469 52.7918C140.434 52.6286 140.458 52.4855 140.542 52.3624C140.626 52.2391 140.756 52.1587 140.932 52.121C141.097 52.0857 141.236 52.1013 141.35 52.1677C141.465 52.2332 141.537 52.3379 141.567 52.4816C141.605 52.6562 141.538 52.8878 141.366 53.1765L141.001 53.7933L141.891 53.6029L141.93 53.7868ZM143.12 52.7416C143.176 53.0054 143.172 53.2112 143.11 53.3587C143.047 53.5063 142.92 53.6006 142.728 53.6416C142.539 53.682 142.386 53.6495 142.268 53.5439C142.15 53.4375 142.063 53.26 142.007 53.0114L141.943 52.7106C141.888 52.45 141.892 52.2467 141.955 52.1007C142.018 51.9548 142.146 51.8612 142.338 51.8201C142.529 51.7793 142.682 51.8105 142.799 51.9139C142.915 52.0164 143.001 52.1948 143.058 52.4493L143.12 52.7416ZM142.829 52.4816C142.788 52.2908 142.732 52.1577 142.66 52.0823C142.588 52.0061 142.494 51.9804 142.378 52.0052C142.262 52.0299 142.188 52.0913 142.153 52.1894C142.119 52.2876 142.12 52.427 142.157 52.6076L142.233 52.9681C142.274 53.1597 142.332 53.2955 142.407 53.3754C142.482 53.4544 142.576 53.4818 142.689 53.4577C142.8 53.4339 142.873 53.3732 142.909 53.2757C142.945 53.178 142.944 53.0363 142.907 52.8507L142.829 52.4816Z" fill="#0696D6"/>
<path d="M99.004 72.2333L97.8424 72.4818L97.808 72.3198L98.2767 71.5065C98.3457 71.3839 98.3904 71.2869 98.4109 71.2155C98.432 71.143 98.4352 71.0723 98.4205 71.0033C98.4008 70.9108 98.3567 70.8408 98.2881 70.7935C98.2195 70.7462 98.1385 70.7326 98.0452 70.7526C97.9332 70.7765 97.8527 70.8273 97.8038 70.9048C97.7556 70.9813 97.7436 71.0764 97.7677 71.1901L97.5425 71.2383C97.5078 71.0751 97.5321 70.9319 97.6154 70.8089C97.6996 70.6856 97.8297 70.6051 98.0058 70.5674C98.1706 70.5322 98.3101 70.5478 98.4244 70.6141C98.5384 70.6797 98.6107 70.7844 98.6413 70.9281C98.6784 71.1026 98.6114 71.3343 98.4402 71.623L98.0749 72.2398L98.9649 72.0494L99.004 72.2333ZM99.9829 72.0238L99.7564 72.0723L99.4373 70.5706L99.0186 70.8346L98.9751 70.63L99.5689 70.2496L99.6042 70.242L99.9829 72.0238Z" fill="#0696D6"/>
<path d="M106.165 70.7011L105.004 70.9496L104.969 70.7876L105.438 69.9743C105.507 69.8517 105.552 69.7547 105.572 69.6833C105.593 69.6109 105.597 69.5402 105.582 69.4711C105.562 69.3786 105.518 69.3087 105.449 69.2614C105.381 69.2141 105.3 69.2004 105.207 69.2204C105.095 69.2444 105.014 69.2951 104.965 69.3726C104.917 69.4492 104.905 69.5443 104.929 69.6579L104.704 69.7061C104.669 69.5429 104.693 69.3998 104.777 69.2767C104.861 69.1534 104.991 69.073 105.167 69.0353C105.332 69 105.471 69.0156 105.586 69.082C105.7 69.1475 105.772 69.2522 105.803 69.3959C105.84 69.5705 105.773 69.8021 105.602 70.0908L105.236 70.7076L106.126 70.5172L106.165 70.7011ZM107.566 70.4015L106.404 70.65L106.37 70.4881L106.838 69.6747C106.907 69.5522 106.952 69.4552 106.972 69.3837C106.994 69.3113 106.997 69.2406 106.982 69.1716C106.962 69.079 106.918 69.0091 106.85 68.9618C106.781 68.9145 106.7 68.9008 106.607 68.9208C106.495 68.9448 106.414 68.9955 106.365 69.073C106.317 69.1496 106.305 69.2447 106.329 69.3583L106.104 69.4065C106.069 69.2433 106.094 69.1002 106.177 68.9771C106.261 68.8539 106.391 68.7734 106.567 68.7357C106.732 68.7004 106.872 68.716 106.986 68.7824C107.1 68.848 107.172 68.9526 107.203 69.0963C107.24 69.2709 107.173 69.5025 107.002 69.7913L106.636 70.408L107.526 70.2176L107.566 70.4015Z" fill="#0696D6"/>
<path d="M113.651 69.0993L112.49 69.3479L112.455 69.1859L112.924 68.3726C112.993 68.25 113.038 68.153 113.058 68.0816C113.079 68.0091 113.082 67.9384 113.068 67.8694C113.048 67.7768 113.004 67.7069 112.935 67.6596C112.867 67.6123 112.786 67.5987 112.692 67.6187C112.58 67.6426 112.5 67.6934 112.451 67.7709C112.403 67.8474 112.391 67.9425 112.415 68.0562L112.19 68.1044C112.155 67.9412 112.179 67.798 112.263 67.6749C112.347 67.5517 112.477 67.4712 112.653 67.4335C112.818 67.3983 112.957 67.4138 113.072 67.4802C113.186 67.5458 113.258 67.6504 113.289 67.7942C113.326 67.9687 113.259 68.2004 113.088 68.4891L112.722 69.1059L113.612 68.9154L113.651 69.0993ZM114.006 67.982L114.175 67.9458C114.281 67.9214 114.359 67.8755 114.408 67.8081C114.457 67.7406 114.472 67.6606 114.452 67.5681C114.408 67.3602 114.283 67.2784 114.076 67.3227C113.978 67.3436 113.906 67.3882 113.86 67.4568C113.814 67.5243 113.801 67.604 113.82 67.6957L113.595 67.7439C113.565 67.6034 113.591 67.476 113.674 67.3615C113.757 67.2461 113.878 67.1715 114.036 67.1376C114.203 67.1018 114.344 67.118 114.458 67.1862C114.572 67.2544 114.645 67.3672 114.679 67.5248C114.695 67.6019 114.686 67.682 114.651 67.765C114.617 67.8479 114.56 67.9164 114.482 67.9705C114.586 67.9805 114.672 68.0156 114.74 68.0757C114.809 68.1357 114.854 68.2173 114.876 68.3204C114.91 68.4795 114.884 68.6169 114.8 68.7325C114.716 68.8481 114.591 68.9237 114.425 68.9593C114.258 68.9949 114.113 68.9789 113.989 68.9111C113.866 68.8433 113.789 68.7354 113.758 68.5876L113.984 68.5392C114.004 68.6326 114.05 68.7008 114.123 68.7438C114.196 68.7867 114.283 68.7973 114.386 68.7754C114.494 68.7522 114.572 68.7059 114.617 68.6368C114.663 68.5676 114.674 68.4798 114.652 68.3735C114.63 68.2704 114.581 68.198 114.506 68.1563C114.431 68.1146 114.334 68.1058 114.214 68.1297L114.045 68.1659L114.006 67.982Z" fill="#0696D6"/>
<path d="M121.163 67.4923L120.001 67.7408L119.967 67.5788L120.436 66.7655C120.505 66.6429 120.549 66.5459 120.57 66.4745C120.591 66.4021 120.594 66.3314 120.58 66.2623C120.56 66.1698 120.516 66.0999 120.447 66.0526C120.379 66.0053 120.298 65.9916 120.204 66.0116C120.092 66.0356 120.012 66.0863 119.963 66.1638C119.915 66.2404 119.903 66.3355 119.927 66.4491L119.702 66.4973C119.667 66.3341 119.691 66.191 119.774 66.0679C119.859 65.9446 119.989 65.8642 120.165 65.8265C120.33 65.7912 120.469 65.8068 120.583 65.8732C120.697 65.9387 120.77 66.0434 120.8 66.1871C120.837 66.3617 120.77 66.5933 120.599 66.882L120.234 67.4988L121.124 67.3084L121.163 67.4923ZM122.226 66.6422L122.472 66.5896L122.511 66.7735L122.265 66.8261L122.353 67.2378L122.126 67.2862L122.039 66.8746L121.231 67.0473L121.203 66.9145L121.736 65.5158L121.976 65.4645L122.226 66.6422ZM121.448 66.8087L122 66.6907L121.815 65.8211L121.798 65.8755L121.448 66.8087Z" fill="#0696D6"/>
<path d="M128.683 65.8832L127.522 66.1317L127.487 65.9698L127.956 65.1564C128.025 65.0339 128.07 64.9369 128.09 64.8654C128.111 64.793 128.114 64.7223 128.1 64.6533C128.08 64.5607 128.036 64.4908 127.967 64.4435C127.899 64.3962 127.818 64.3826 127.724 64.4025C127.612 64.4265 127.532 64.4772 127.483 64.5548C127.435 64.6313 127.423 64.7264 127.447 64.8401L127.222 64.8882C127.187 64.725 127.211 64.5819 127.295 64.4588C127.379 64.3356 127.509 64.2551 127.685 64.2174C127.85 64.1821 127.989 64.1977 128.104 64.2641C128.218 64.3297 128.29 64.4343 128.32 64.578C128.358 64.7526 128.291 64.9842 128.119 65.273L127.754 65.8898L128.644 65.6993L128.683 65.8832ZM128.836 64.9209L128.739 64.0175L129.647 63.8231L129.691 64.0314L128.974 64.1848L129.023 64.6798C129.099 64.6101 129.192 64.5634 129.303 64.5398C129.464 64.5052 129.604 64.5314 129.722 64.6182C129.839 64.7043 129.917 64.8382 129.956 65.0201C129.995 65.2028 129.976 65.3575 129.899 65.4842C129.823 65.61 129.697 65.6918 129.52 65.7297C129.363 65.7632 129.226 65.7471 129.109 65.6814C128.991 65.6157 128.909 65.5076 128.863 65.3571L129.076 65.3115C129.111 65.4101 129.164 65.4791 129.233 65.5185C129.303 65.5572 129.385 65.5662 129.481 65.5458C129.586 65.5233 129.66 65.4701 129.704 65.386C129.749 65.3017 129.758 65.1966 129.731 65.0707C129.706 64.9522 129.653 64.8641 129.573 64.8066C129.494 64.748 129.4 64.7302 129.293 64.7531C129.195 64.7742 129.123 64.8122 129.076 64.8672L129.026 64.9287L128.836 64.9209Z" fill="#0696D6"/>
<path d="M136.174 64.2805L135.012 64.529L134.978 64.367L135.446 63.5537C135.515 63.4312 135.56 63.3341 135.581 63.2627C135.602 63.1903 135.605 63.1196 135.59 63.0506C135.571 62.958 135.526 62.8881 135.458 62.8408C135.389 62.7935 135.308 62.7798 135.215 62.7998C135.103 62.8238 135.023 62.8745 134.974 62.952C134.925 63.0286 134.913 63.1237 134.938 63.2373L134.712 63.2855C134.678 63.1223 134.702 62.9792 134.785 62.8561C134.869 62.7328 134.999 62.6524 135.176 62.6147C135.34 62.5794 135.48 62.595 135.594 62.6614C135.708 62.7269 135.781 62.8316 135.811 62.9753C135.848 63.1499 135.781 63.3815 135.61 63.6703L135.245 64.287L136.135 64.0966L136.174 64.2805ZM136.919 62.2658L136.96 62.457L136.918 62.4659C136.744 62.5066 136.615 62.5885 136.533 62.7114C136.45 62.8343 136.42 62.9888 136.443 63.175C136.513 63.0479 136.63 62.967 136.791 62.9324C136.945 62.8994 137.08 62.9275 137.195 63.0167C137.31 63.1057 137.386 63.2363 137.423 63.4084C137.462 63.5911 137.443 63.7479 137.366 63.8789C137.291 64.0097 137.169 64.093 137.002 64.1288C136.832 64.1651 136.681 64.1295 136.548 64.0222C136.415 63.9141 136.326 63.7573 136.282 63.5519L136.264 63.4654C136.195 63.139 136.211 62.8749 136.313 62.673C136.416 62.4702 136.605 62.3374 136.879 62.2744L136.919 62.2658ZM136.793 63.1281C136.716 63.1446 136.65 63.1829 136.595 63.2431C136.54 63.3033 136.507 63.3709 136.497 63.4462L136.514 63.529C136.545 63.6751 136.603 63.7858 136.688 63.8611C136.773 63.9363 136.864 63.9634 136.962 63.9424C137.064 63.9207 137.135 63.8663 137.177 63.7793C137.22 63.6921 137.228 63.588 137.203 63.467C137.177 63.3452 137.126 63.2533 137.051 63.1913C136.977 63.1283 136.891 63.1072 136.793 63.1281Z" fill="#0696D6"/>
<path d="M143.813 62.6461L142.652 62.8946L142.617 62.7326L143.086 61.9193C143.155 61.7968 143.2 61.6997 143.22 61.6283C143.241 61.5559 143.244 61.4852 143.23 61.4162C143.21 61.3236 143.166 61.2537 143.097 61.2064C143.029 61.1591 142.948 61.1454 142.854 61.1654C142.742 61.1894 142.662 61.2401 142.613 61.3176C142.565 61.3942 142.553 61.4893 142.577 61.6029L142.352 61.6511C142.317 61.4879 142.341 61.3448 142.425 61.2217C142.509 61.0984 142.639 61.018 142.815 60.9803C142.98 60.945 143.119 60.9606 143.233 61.027C143.348 61.0925 143.42 61.1972 143.45 61.3409C143.488 61.5155 143.42 61.7471 143.249 62.0359L142.884 62.6526L143.774 62.4622L143.813 62.6461ZM144.846 60.7036L144.462 62.5073L144.226 62.5578L144.62 60.8131L143.661 61.0184L143.621 60.8332L144.819 60.5769L144.846 60.7036Z" fill="#0696D6"/>
<path d="M100.887 81.0926L99.7256 81.3411L99.6912 81.1791L100.16 80.3658C100.229 80.2432 100.274 80.1462 100.294 80.0748C100.315 80.0024 100.318 79.9316 100.304 79.8626C100.284 79.7701 100.24 79.7001 100.171 79.6529C100.103 79.6056 100.022 79.5919 99.9283 79.6119C99.8163 79.6358 99.7359 79.6866 99.687 79.7641C99.6388 79.8406 99.6268 79.9357 99.6509 80.0494L99.4257 80.0976C99.391 79.9344 99.4153 79.7913 99.4986 79.6682C99.5827 79.5449 99.7129 79.4644 99.889 79.4268C100.054 79.3915 100.193 79.4071 100.308 79.4734C100.422 79.539 100.494 79.6437 100.524 79.7874C100.562 79.9619 100.495 80.1936 100.323 80.4823L99.958 81.0991L100.848 80.9087L100.887 81.0926ZM101.922 79.501C101.941 79.5895 101.934 79.6733 101.902 79.7524C101.87 79.8313 101.819 79.8988 101.748 79.9548C101.849 79.9747 101.934 80.0172 102.004 80.082C102.074 80.1467 102.12 80.2274 102.141 80.324C102.173 80.4774 102.147 80.6108 102.063 80.7239C101.979 80.8369 101.853 80.9115 101.684 80.9476C101.513 80.9841 101.367 80.9679 101.244 80.899C101.123 80.8291 101.046 80.7179 101.013 80.5652C100.993 80.4694 101 80.3774 101.036 80.2891C101.072 80.2007 101.132 80.1267 101.217 80.0671C101.13 80.045 101.056 80.0043 100.996 79.945C100.936 79.8857 100.896 79.8122 100.878 79.7245C100.846 79.5751 100.869 79.4463 100.946 79.3382C101.023 79.23 101.14 79.1591 101.296 79.1256C101.452 79.0923 101.587 79.1092 101.702 79.1764C101.817 79.2434 101.891 79.3516 101.922 79.501ZM101.914 80.3673C101.893 80.2683 101.844 80.1942 101.768 80.1453C101.692 80.0961 101.603 80.0824 101.502 80.1041C101.4 80.1258 101.325 80.1741 101.277 80.249C101.229 80.3238 101.216 80.4115 101.237 80.5122C101.259 80.6128 101.305 80.6857 101.377 80.7306C101.449 80.7754 101.538 80.7865 101.645 80.7637C101.75 80.7411 101.827 80.6946 101.875 80.6241C101.922 80.5528 101.936 80.4672 101.914 80.3673ZM101.336 79.3107C101.247 79.3297 101.181 79.3726 101.138 79.4397C101.095 79.5057 101.084 79.5858 101.104 79.68C101.123 79.7701 101.165 79.8375 101.231 79.882C101.297 79.9256 101.375 79.9377 101.465 79.9185C101.555 79.8992 101.621 79.8562 101.663 79.7895C101.705 79.7219 101.717 79.643 101.698 79.5529C101.679 79.4627 101.635 79.3953 101.567 79.3504C101.499 79.3055 101.422 79.2923 101.336 79.3107Z" fill="#0696D6"/>
<path d="M108.048 79.5604L106.887 79.8089L106.852 79.647L107.321 78.8336C107.39 78.7111 107.435 78.6141 107.455 78.5426C107.476 78.4702 107.48 78.3995 107.465 78.3305C107.445 78.2379 107.401 78.168 107.332 78.1207C107.264 78.0734 107.183 78.0597 107.09 78.0797C106.977 78.1037 106.897 78.1544 106.848 78.2319C106.8 78.3085 106.788 78.4036 106.812 78.5172L106.587 78.5654C106.552 78.4022 106.576 78.2591 106.66 78.136C106.744 78.0127 106.874 77.9323 107.05 77.8946C107.215 77.8593 107.354 77.8749 107.469 77.9413C107.583 78.0069 107.655 78.1115 107.686 78.2552C107.723 78.4298 107.656 78.6614 107.485 78.9502L107.119 79.5669L108.009 79.3765L108.048 79.5604ZM108.985 78.5452C108.949 78.6113 108.903 78.6684 108.844 78.7166C108.786 78.7646 108.719 78.7969 108.641 78.8136C108.538 78.8355 108.444 78.8294 108.357 78.7954C108.271 78.7612 108.197 78.7031 108.136 78.621C108.075 78.5381 108.033 78.4414 108.01 78.331C107.985 78.2125 107.984 78.1009 108.009 77.9964C108.034 77.8917 108.083 77.8053 108.155 77.7372C108.227 77.6692 108.318 77.6233 108.428 77.5997C108.604 77.5622 108.756 77.5984 108.884 77.7084C109.014 77.8174 109.102 77.9852 109.15 78.2117L109.164 78.2775C109.238 78.6226 109.223 78.8893 109.121 79.0776C109.018 79.2651 108.829 79.3903 108.555 79.4533L108.511 79.4626L108.471 79.2726L108.518 79.2625C108.704 79.2195 108.836 79.1406 108.916 79.0259C108.996 78.9103 109.019 78.7501 108.985 78.5452ZM108.638 78.6194C108.713 78.6033 108.778 78.5653 108.831 78.5055C108.885 78.4455 108.92 78.3782 108.935 78.3038L108.915 78.2137C108.884 78.0659 108.826 77.9526 108.743 77.8737C108.659 77.7949 108.568 77.766 108.47 77.787C108.37 77.8082 108.299 77.8634 108.255 77.9525C108.211 78.0409 108.202 78.1472 108.229 78.2714C108.255 78.3924 108.305 78.4861 108.379 78.5525C108.454 78.618 108.54 78.6403 108.638 78.6194Z" fill="#0696D6"/>
<path d="M114.489 77.1409L114.658 77.1046C114.764 77.0803 114.842 77.0344 114.891 76.9669C114.94 76.8995 114.955 76.8195 114.935 76.727C114.891 76.5191 114.766 76.4373 114.559 76.4816C114.461 76.5025 114.389 76.5471 114.343 76.6157C114.297 76.6832 114.284 76.7629 114.303 76.8546L114.078 76.9028C114.048 76.7623 114.074 76.6349 114.157 76.5204C114.24 76.405 114.361 76.3304 114.519 76.2965C114.687 76.2607 114.827 76.2769 114.941 76.3451C115.055 76.4133 115.128 76.5261 115.162 76.6836C115.178 76.7608 115.169 76.8409 115.134 76.9239C115.1 77.0068 115.043 77.0752 114.965 77.1294C115.069 77.1394 115.155 77.1745 115.223 77.2346C115.292 77.2946 115.337 77.3762 115.359 77.4793C115.393 77.6384 115.368 77.7758 115.283 77.8914C115.199 78.007 115.074 78.0826 114.908 78.1182C114.741 78.1538 114.596 78.1378 114.472 78.07C114.349 78.0022 114.272 77.8943 114.241 77.7465L114.467 77.6981C114.487 77.7915 114.533 77.8596 114.606 77.9026C114.679 77.9456 114.766 77.9562 114.869 77.9343C114.977 77.911 115.055 77.8648 115.1 77.7957C115.146 77.7265 115.157 77.6387 115.135 77.5324C115.113 77.4293 115.064 77.3569 114.989 77.3152C114.914 77.2735 114.817 77.2646 114.697 77.2886L114.528 77.3248L114.489 77.1409ZM116.724 76.9134C116.78 77.1773 116.777 77.383 116.714 77.5306C116.651 77.6782 116.524 77.7724 116.332 77.8134C116.143 77.8539 115.99 77.8213 115.872 77.7157C115.755 77.6093 115.668 77.4319 115.612 77.1833L115.548 76.8825C115.492 76.6218 115.496 76.4185 115.559 76.2726C115.622 76.1267 115.75 76.0331 115.943 75.992C116.133 75.9511 116.287 75.9824 116.403 76.0857C116.519 76.1882 116.605 76.3667 116.662 76.6211L116.724 76.9134ZM116.433 76.6535C116.393 76.4627 116.336 76.3296 116.264 76.2542C116.192 76.1779 116.098 76.1522 115.982 76.1771C115.867 76.2017 115.792 76.2632 115.758 76.3613C115.723 76.4595 115.725 76.5989 115.761 76.7795L115.838 77.14C115.879 77.3316 115.936 77.4674 116.011 77.5473C116.086 77.6263 116.18 77.6537 116.293 77.6295C116.404 77.6057 116.478 77.5451 116.513 77.4475C116.549 77.3498 116.549 77.2082 116.512 77.0225L116.433 76.6535Z" fill="#0696D6"/>
<path d="M128.624 58.7232L130.568 60.4245L133.295 55.2893" stroke="#1B2746" stroke-miterlimit="10"/>
<path d="M90.5378 43.67L143.02 32.3955L139.962 18.032L87.4791 29.3057L90.5378 43.67Z" fill="#0696D6"/>
<path d="M109.956 32.9827L110.325 32.9038L110.743 34.8735C110.8 35.1397 110.764 35.3651 110.635 35.5497C110.508 35.7341 110.312 35.8547 110.045 35.9116C109.769 35.9707 109.539 35.9461 109.355 35.8377C109.171 35.7293 109.052 35.5477 108.997 35.293L109.364 35.2145C109.398 35.3737 109.468 35.4886 109.573 35.5593C109.68 35.6296 109.816 35.6471 109.982 35.6117C110.133 35.5793 110.245 35.5054 110.318 35.3899C110.392 35.2743 110.411 35.1303 110.376 34.9581L109.956 32.9827ZM112.907 32.3514L113.309 34.2427C113.363 34.5053 113.326 34.7377 113.197 34.9396C113.07 35.1414 112.868 35.2824 112.592 35.3627L112.496 35.3873C112.192 35.4525 111.932 35.4222 111.716 35.2966C111.5 35.171 111.36 34.9645 111.297 34.6772L110.894 32.7821L111.257 32.7044L111.657 34.5881C111.7 34.7894 111.789 34.9342 111.923 35.0225C112.057 35.1096 112.227 35.1313 112.432 35.0874C112.64 35.043 112.786 34.9537 112.872 34.8194C112.96 34.6849 112.982 34.5171 112.939 34.3158L112.538 32.4302L112.907 32.3514ZM116.214 34.5519L115.845 34.6308L113.99 32.7868L114.445 34.9303L114.077 35.0092L113.486 32.2275L113.854 32.1487L115.716 34.0014L115.258 31.8483L115.623 31.7703L116.214 34.5519ZM118.164 32.7905L116.959 33.0484L117.168 34.0341L118.568 33.7346L118.632 34.0346L116.865 34.4125L116.274 31.6309L118.022 31.257L118.086 31.5589L116.705 31.8543L116.895 32.7484L118.1 32.4906L118.164 32.7905Z" fill="white"/>
<path d="M136.293 28.9102L137.677 29.4473L136.632 30.5041L136.293 28.9102Z" fill="white"/>
<path d="M94.2321 38.7442L95.2773 37.6866L95.6162 39.2813L94.2321 38.7442Z" fill="white"/>
<g opacity="0.15">
<g opacity="0.15">
<path opacity="0.15" d="M169.209 137.53L178.147 116.122L62.4527 59.5847L53.5156 80.9929L169.209 137.53Z" fill="white"/>
<path opacity="0.15" d="M188.445 91.4543L195.536 74.4689L79.8431 17.9303L72.7506 34.9179L188.445 91.4543Z" fill="white"/>
<path opacity="0.15" d="M180.575 110.303L183.683 102.857L67.9901 46.3195L64.8807 53.7668L180.575 110.303Z" fill="white"/>
</g>
</g>
<path d="M84.3315 57.4943C88.4271 56.9138 91.4466 61.1069 92.5244 66.9107C93.6031 72.7154 93.8123 77.6267 93.9453 80.1362C94 90.2216 95.583 92.9074 97 95.2216C98.3385 97.4074 101.017 103.119 103.914 115.722C106.414 126.596 105.414 144.57 99.3244 145.526C87.8693 147.324 83.9667 142.23 80.9576 135.187C77.9507 128.145 74.239 112.515 76.9289 104.523C82.0932 89.1662 84.308 80.0797 83.1654 72.0089C82.0224 63.939 80.2341 58.076 84.3315 57.4943Z" fill="#FAC4A8"/>
<path d="M81.614 59.6603C82.4562 58.6033 84.0571 57.789 85.3284 60.7572C86.4018 63.2664 88.2362 68.7141 87.7792 71.1898C87.3244 73.665 83.1597 75.3997 82.9297 74.0667C82.6993 72.7332 80.4854 61.0751 81.614 59.6603Z" fill="#FFE8DB"/>
<path d="M114.434 173.077C108.931 157.979 96.7643 151.319 96.7643 151.319C105.221 152.55 112.29 151.629 117.809 150.014C117.129 150.546 116.545 150.959 116.102 151.188L114.434 173.077Z" fill="#E5A98E"/>
<path d="M148.498 57.4525C147.98 57.7503 145.664 60.4533 147.156 65.7046C148.647 70.9558 151.459 72.4797 153.718 71.2558C157.595 69.155 158.042 65.2542 157.296 62.5537C156.974 61.3855 156.294 58.2616 154.016 57.0021C151.737 55.7429 149.091 57.1121 148.498 57.4525Z" fill="#FAC4A8"/>
<path d="M151.269 57.4243C151.269 57.4243 153.298 58.7816 154.358 61.5151C155.535 64.5503 155.535 67.5859 155.535 67.5859C155.535 67.5859 157.741 66.3981 156.638 62.6368C155.969 60.3555 155.02 58.7651 153.769 57.9521C152.958 57.4247 151.79 57.1903 151.269 57.4243Z" fill="#FFE8DB"/>
<path d="M151.726 74.9236C151.318 75.188 149.422 77.6828 150.292 82.7684C151.162 87.854 153.074 90.1266 154.956 89.1C158.153 87.3561 158.293 80.9614 157.862 78.3467C157.431 75.7319 152.55 74.3906 151.726 74.9236Z" fill="#FAC4A8"/>
<path d="M158.087 81.3388C157.843 79.131 157.202 77.4988 156.128 76.5184C155.431 75.8827 154.335 75.4462 153.785 75.5597C153.785 75.5597 155.521 77.1849 156.066 79.8805C156.671 82.8736 156.129 85.6418 156.129 85.6418C156.129 85.6418 158.492 84.9801 158.087 81.3388Z" fill="#FFE8DB"/>
<path d="M157.755 93.1473C156.015 92.5904 152.421 93.4504 152.614 98.6525C152.808 103.855 155.32 108.5 158.026 106.643C160.732 104.784 161.312 101.997 160.925 99.2103C160.538 96.423 159.494 93.7052 157.755 93.1473Z" fill="#FAC4A8"/>
<path d="M160.212 99.343C159.949 97.3069 159.258 95.8022 158.101 94.8982C157.349 94.3122 156.167 93.9091 155.574 94.0143C155.574 94.0143 157.446 95.5126 158.032 97.9982C158.685 100.758 158.101 103.311 158.101 103.311C158.101 103.311 160.648 102.7 160.212 99.343Z" fill="#FFE8DB"/>
<path d="M167.998 101.999C168.429 104.008 167.44 105.915 165.788 106.259L119.908 115.8C118.256 116.145 116.565 114.794 116.133 112.785L108.046 75.1956C107.615 73.186 108.603 71.2794 110.257 70.9357L156.136 61.3947C157.789 61.0505 159.478 62.4007 159.91 64.4099L167.998 101.999Z" fill="#E3E3E3"/>
<g opacity="0.9">
<path opacity="0.9" d="M170.452 98.6294C170.883 100.639 169.894 102.545 168.241 102.89L122.361 112.43C120.709 112.773 119.019 111.424 118.586 109.415L110.499 71.8256C110.068 69.8164 111.057 67.9094 112.709 67.5657L158.59 58.0246C160.242 57.6809 161.931 59.0307 162.364 61.0394L170.452 98.6294Z" fill="white"/>
<g opacity="0.9">
<g opacity="0.9">
<g opacity="0.9">
<path opacity="0.9" d="M127.843 94.8187C128.347 97.1619 126.259 104.398 126.259 104.398C126.259 104.398 121.37 98.6128 120.866 96.27C120.362 93.9271 121.515 91.7037 123.442 91.3035C125.368 90.903 127.339 92.4767 127.843 94.8187Z" fill="#1B2746"/>
<path opacity="0.9" d="M126.007 95.2009C126.246 96.3109 125.699 97.3634 124.787 97.5538C123.874 97.7433 122.94 96.9979 122.702 95.8888C122.463 94.7784 123.01 93.7259 123.922 93.5355C124.834 93.3455 125.768 94.0914 126.007 95.2009Z" fill="white"/>
</g>
<g opacity="0.9">
<path opacity="0.9" d="M164.519 94.7953L131.406 101.682L131.04 99.9843L164.154 93.0977L164.519 94.7953Z" fill="#D9D9D9"/>
<path opacity="0.9" d="M163.633 90.6723L130.519 97.5593L130.154 95.8617L163.267 88.9751L163.633 90.6723Z" fill="#D9D9D9"/>
<path opacity="0.9" d="M162.745 86.5492L129.632 93.4358L129.267 91.7382L162.38 84.8525L162.745 86.5492Z" fill="#D9D9D9"/>
</g>
</g>
<g opacity="0.9">
<path opacity="0.9" d="M124.89 77.4467C125.466 80.1262 124.147 82.6689 121.945 83.1267C119.741 83.585 117.488 81.7848 116.911 79.1058C116.335 76.4271 117.654 73.8845 119.858 73.4266C122.06 72.9692 124.315 74.7681 124.89 77.4467Z" fill="#FFC909"/>
<g opacity="0.9">
<path opacity="0.9" d="M160.57 75.2204L127.456 82.1074L127.091 80.4102L160.205 73.5241L160.57 75.2204Z" fill="#D9D9D9"/>
<path opacity="0.9" d="M159.683 71.0983L126.569 77.9848L126.204 76.2876L159.318 69.4006L159.683 71.0983Z" fill="#D9D9D9"/>
<path opacity="0.9" d="M158.797 66.9751L125.682 73.8621L125.317 72.1641L158.431 65.278L158.797 66.9751Z" fill="#D9D9D9"/>
</g>
<path opacity="0.9" d="M120.108 79.9313L119.771 80.0117L119.238 77.7807L118.623 78.1898L118.55 77.8858L119.423 77.2966L119.476 77.2841L120.108 79.9313ZM122.221 77.3684C122.253 77.4999 122.246 77.6253 122.2 77.7445C122.156 77.8635 122.082 77.966 121.977 78.0522C122.129 78.0784 122.258 78.1387 122.365 78.2331C122.473 78.3272 122.544 78.446 122.578 78.5896C122.632 78.8176 122.599 79.0176 122.476 79.1896C122.355 79.3613 122.17 79.4771 121.919 79.537C121.665 79.5975 121.446 79.5785 121.26 79.48C121.076 79.38 120.957 79.2166 120.902 78.9898C120.868 78.8475 120.876 78.7098 120.926 78.5768C120.977 78.4434 121.064 78.3308 121.188 78.2388C121.057 78.2089 120.946 78.1507 120.854 78.0643C120.762 77.9779 120.7 77.8695 120.669 77.7393C120.616 77.5173 120.645 77.3242 120.756 77.1599C120.867 76.9956 121.039 76.8857 121.272 76.83C121.504 76.7747 121.706 76.7952 121.88 76.8915C122.054 76.9875 122.168 77.1464 122.221 77.3684ZM122.241 78.6623C122.206 78.5151 122.131 78.4063 122.014 78.3359C121.899 78.2652 121.766 78.2479 121.616 78.2839C121.465 78.3199 121.355 78.3947 121.285 78.5083C121.216 78.6216 121.2 78.753 121.235 78.9026C121.271 79.0522 121.343 79.1593 121.452 79.2239C121.562 79.2882 121.695 79.3015 121.853 79.2638C122.01 79.2263 122.123 79.1541 122.192 79.0471C122.26 78.939 122.277 78.8107 122.241 78.6623ZM121.338 77.1051C121.206 77.1365 121.109 77.203 121.047 77.3046C120.985 77.4048 120.971 77.5248 121.005 77.6647C121.037 77.7986 121.103 77.8977 121.202 77.9619C121.302 78.0246 121.42 78.04 121.554 78.008C121.687 77.976 121.784 77.9095 121.844 77.8085C121.905 77.7059 121.92 77.5877 121.888 77.4538C121.856 77.3199 121.788 77.2207 121.685 77.1561C121.581 77.0915 121.466 77.0745 121.338 77.1051Z" fill="#1B2746"/>
</g>
<path opacity="0.9" d="M162.257 79.431L118.172 88.5989L118.016 87.871L162.101 78.7031L162.257 79.431Z" fill="#E8E8E8"/>
</g>
</g>
</g>
<defs>
<clipPath id="clip0">
<rect width="210" height="174" fill="white" transform="translate(0 0.221558)"/>
</clipPath>
<clipPath id="clip1">
<rect width="106" height="106" fill="white" transform="translate(2 2.22156)"/>
</clipPath>
</defs>
</svg>
